<svg width="92" height="82" viewBox="0 0 92 82" fill="none" xmlns="http://www.w3.org/2000/svg">
<rect x="3.89673" y="4.51855" width="84.2073" height="14.3511" fill="black"/>
<rect x="3.89673" y="64.3235" width="84.2073" height="14.3511" fill="black"/>
<g clip-path="url(#clip0_2147_180)">
<path d="M48.5904 66.8678C48.3392 66.6883 47.9086 66.595 47.2986 66.595H46.4806L45.4902 71.283H46.3083C46.8752 71.283 47.2986 71.2041 47.6072 71.0461C47.9158 70.8882 48.1741 70.6441 48.3966 70.2923C48.6191 69.9405 48.7841 69.5026 48.8918 68.9785C48.9994 68.4472 49.0281 67.9949 48.9779 67.6216C48.9276 67.2842 48.7985 67.0329 48.5904 66.8606" fill="white"/>
<path d="M8.10917 66.7314C7.97282 66.6452 7.72883 66.595 7.37719 66.595H6.63804L6.19312 68.677H6.85333C7.16908 68.677 7.4059 68.6339 7.59248 68.5406C7.77906 68.4472 7.93694 68.3108 8.05893 68.1242C8.19528 67.9303 8.28857 67.7293 8.33163 67.5355C8.36751 67.3632 8.36751 67.198 8.33163 67.0688C8.28857 66.9468 8.20964 66.8319 8.10199 66.7386" fill="white"/>
<path d="M34.532 11.0561L34.6109 11.0058C34.7903 10.9125 34.9554 10.7761 35.0774 10.5894C35.2137 10.3956 35.307 10.1946 35.3501 10.0007C35.386 9.82841 35.386 9.66329 35.3501 9.53406C35.307 9.41201 35.2353 9.30432 35.1276 9.21099C34.9913 9.12484 34.7473 9.07458 34.4028 9.07458H33.6637L33.2188 11.1566H33.8718C34.1373 11.1566 34.3526 11.1207 34.5248 11.0561" fill="white"/>
<path d="M25.9062 69.6318H27.8438L27.4348 67.1478L25.9062 69.6318Z" fill="white"/>
<path d="M21.8446 9.62024L20.3088 12.1043H22.2464L21.8446 9.62024Z" fill="white"/>
<path d="M0 81.0182H91.54V0H0V81.0182ZM82.0674 14.5237L83.4165 8.16284L83.5385 8.22027H87.1697L86.9687 9.11768H86.8611H84.2633L83.8901 10.8551H86.2511L86.0789 11.6879H85.9641H83.7179L83.2873 13.7411H86.2081L86.0071 14.6385H85.8995H82.1607H82.053L82.0817 14.5093L82.0674 14.5237ZM70.4849 8.22027H75.7164L75.5442 9.06743H75.4294H73.4559L72.2646 14.6529H72.157H71.3461H71.2384L71.2671 14.5237L72.4297 9.06743H70.4204H70.3127L70.4849 8.22027ZM59.8713 8.22027H60.8401L60.8544 8.3136L61.9022 14.6601H61.7515H60.8688H60.8042L60.5243 12.9514H57.9337L56.8645 14.6601H56.7783H56.032H55.8598L59.8641 8.22027H59.8713ZM44.0908 11.4868L44.1195 11.4007C44.2917 10.6182 44.5357 9.99356 44.8443 9.53408C45.1672 9.06743 45.5619 8.69411 46.0212 8.42847C46.4876 8.16284 47.0043 8.02643 47.5641 8.02643C47.9516 8.02643 48.2817 8.09105 48.5759 8.21309C48.8701 8.34232 49.0926 8.53616 49.2361 8.78744C49.3796 9.05307 49.4227 9.3187 49.3653 9.57716V9.59152V9.69921H49.2361H48.4754H48.3678L48.4324 9.41203C48.3821 9.21101 48.253 9.07461 48.0449 8.98128C48.0449 8.98128 48.0305 8.98128 48.0305 8.9741C47.8583 8.90231 47.6717 8.86641 47.4421 8.86641C47.2985 8.86641 47.1622 8.88077 47.033 8.90948C46.6455 8.99564 46.3082 9.20384 46.0068 9.53408C45.5978 9.99356 45.3107 10.6325 45.1385 11.4438C44.9663 12.2335 44.9878 12.8724 45.2031 13.3391C45.404 13.7842 45.7772 13.9996 46.3369 13.9996C46.667 13.9996 47.0617 13.9206 47.5066 13.777L47.8439 12.2048H46.5522H46.4446L46.6168 11.372H48.985L48.3534 14.3586L48.3032 14.3801C47.7363 14.6242 47.2196 14.7678 46.7388 14.8252C46.5737 14.8467 46.4087 14.8611 46.2508 14.8611C45.648 14.8611 45.1528 14.7391 44.8227 14.495C44.8227 14.495 44.8227 14.495 44.8156 14.4878C44.8084 14.4878 44.794 14.4734 44.7869 14.4662C44.4352 14.2006 44.1912 13.8273 44.0621 13.3391C43.9257 12.8581 43.9401 12.2335 44.0979 11.494M31.4606 14.5237L32.7954 8.22745H34.8119C35.2927 8.22745 35.6587 8.29925 35.8883 8.44283C36.1251 8.60078 36.2902 8.81615 36.3691 9.08897C36.4624 9.38332 36.4696 9.68485 36.3978 9.98638C36.3476 10.2305 36.24 10.4889 36.0964 10.7187C35.9457 10.9556 35.7592 11.171 35.5439 11.3504C35.3645 11.5084 35.1133 11.652 34.8119 11.774C34.855 11.8099 34.8908 11.8458 34.9267 11.8889C34.9985 11.9894 35.0631 12.1043 35.1277 12.2478L35.2066 12.4345C35.2425 12.5135 35.2712 12.5925 35.2999 12.6714L35.9457 14.6601H35.7735H34.8406H34.7904L34.245 12.9442C34.1373 12.5853 33.9579 12.2694 33.7139 11.9822H33.025L32.4581 14.6457H32.3505H31.5395H31.4319L31.4606 14.5165V14.5237ZM21.7225 8.22027H22.6912L22.7056 8.3136L23.7533 14.6601H23.6026H22.7199H22.6554L22.3755 12.9514H19.7849L18.7156 14.6601H18.6295H17.876H17.7038L21.7081 8.22027H21.7225ZM4.59279 14.538L5.92757 8.22745L6.88918 8.21309L7.82927 12.4776L10.4414 8.21309H11.4246L11.3959 8.34232L10.0611 14.6529H9.95343H9.23581H9.12817L10.0539 10.3597L9.74532 10.8981L8.02303 13.7268H7.93691H7.126H7.06859L6.43708 10.8622L6.37249 10.4171L6.28638 10.8622L5.47546 14.6744H5.36782H4.6789H4.57126L4.59996 14.5452L4.59279 14.538ZM9.40804 67.4996L9.39369 67.5427C9.33628 67.7796 9.23581 68.0237 9.09946 68.2462C8.95594 68.4688 8.76935 68.6913 8.56124 68.878C8.38184 69.0359 8.13067 69.1795 7.82209 69.3088C7.86515 69.3447 7.90103 69.3805 7.93691 69.4236C8.0015 69.5098 8.05891 69.6246 8.13067 69.7826L8.20243 69.9549C8.23831 70.041 8.27419 70.1272 8.3029 70.2062L8.94876 72.1948H8.77653H7.84362H7.79339L7.24799 70.479C7.14035 70.12 6.96812 69.8041 6.71695 69.517H6.02803L5.46111 72.1805H5.35347H4.54255H4.43491L4.46362 72.0512L5.80557 65.7407H7.82209C8.3029 65.7407 8.66889 65.8125 8.89853 65.956C9.13534 66.1212 9.3004 66.3294 9.37933 66.6022C9.47262 66.8965 9.4798 67.198 9.40804 67.4996ZM29.2216 72.1805H28.3389H28.2744L27.9945 70.4718H25.4039L24.3346 72.1805H24.2485H23.495H23.3228L27.3271 65.7407H28.2959L28.3102 65.834L29.358 72.1805H29.2073H29.2216ZM49.9466 68.9713L49.3151 70.6082C48.9921 71.1036 48.6118 71.4769 48.1382 71.7641C47.8942 71.9148 47.5999 72.0225 47.2627 72.0871C46.9541 72.1589 46.6024 72.1948 46.2078 72.1948H44.3706H44.263L44.2917 72.0656L45.6265 65.755H47.4349C48.3104 65.755 48.906 65.8699 49.2577 66.114C49.6236 66.3652 49.8676 66.7242 49.9896 67.2196C50.1116 67.7078 50.1044 68.3037 49.9537 68.9785M66.8179 65.8771L65.4831 72.1876H65.3755H64.5646H64.4569L64.4856 72.0584L65.8204 65.7478H66.8466L66.8179 65.8771ZM86.8611 68.9857C86.6386 70.0626 86.2009 70.9026 85.5694 71.4841C85.0886 71.9292 84.5504 72.2092 83.9691 72.3169C83.7825 72.3528 83.5816 72.3743 83.3806 72.3743C82.7922 72.3743 82.3257 72.2092 81.9741 71.8861C81.8306 71.7641 81.7014 71.6277 81.5937 71.4554C81.2134 70.8667 81.1345 70.0195 81.3569 68.9354C81.5794 67.8729 82.0171 67.0329 82.6487 66.437C83.2802 65.8483 84.005 65.5468 84.8159 65.5468C85.6268 65.5468 86.2368 65.8555 86.6243 66.4586C87.0118 67.0545 87.0907 67.8801 86.8611 68.9785M87.1984 58.906L4.37032 58.9132V22.4496H87.1984V58.906Z" fill="white"/>
<path d="M85.3756 66.5734C85.1818 66.4586 84.9522 66.4011 84.6723 66.4011H84.6651C84.536 66.4011 84.414 66.4155 84.2992 66.4442C83.926 66.5304 83.5887 66.7457 83.2945 67.0903C82.8854 67.5713 82.5912 68.2031 82.4262 68.9857C82.2611 69.7754 82.2826 70.4072 82.4907 70.8595C82.6917 71.3117 83.0433 71.5271 83.56 71.5271C84.0767 71.5271 84.5647 71.2902 84.9594 70.8307C85.3684 70.3497 85.6626 69.7179 85.8277 68.9354C85.9927 68.16 85.9784 67.5283 85.7703 67.0616C85.677 66.8462 85.5478 66.6883 85.3828 66.5734" fill="white"/>
<path d="M59.9862 9.62024L58.4504 12.1043H60.3952L59.9862 9.62024Z" fill="white"/>
</g>
<defs>
<clipPath id="clip0_2147_180">
<rect width="91.54" height="81.0182" fill="white"/>
</clipPath>
</defs>
</svg>
